<?xml version="1.0" encoding="UTF-8"?>
<svg version="1.1" viewBox="0 0 1024 1024" xmlns="http://www.w3.org/2000/svg">
 <g fill="#fff">
  <path d="m417.62 76.875c-42.392 9.4242-84.327 22.545-123.64 42.334 0.89912 34.716 3.1436 67.98 7.6934 101.77-15.268 9.7821-31.315 18.178-45.576 29.629-14.49 11.147-29.29 21.812-42.41 34.85-26.212-17.337-53.955-33.63-82.535-48.012-30.807 33.155-59.613 68.94-83.145 108.98 18.493 29.029 38.329 58.206 56.699 80.959v245.77c0.44956 0.00417 0.89835 0.02088 1.3438 0.0625l150.67 14.527c7.8923 0.76176 14.077 7.1145 14.627 15.023l4.6465 66.51 131.43 9.3789 9.0547-61.387c1.1739-7.9589 8.0003-13.857 16.051-13.857h158.96c8.0463 0 14.873 5.8985 16.047 13.857l9.0547 61.387 131.43-9.3789 4.6426-66.51c0.55362-7.909 6.7346-14.258 14.627-15.023l150.61-14.527c0.4454-0.04162 0.89028-0.05833 1.3398-0.0625v-19.611l0.0625-0.01954v-226.13c21.216-26.709 41.307-56.172 56.699-80.959-23.523-40.044-52.345-75.829-83.152-108.98-28.572 14.382-56.325 30.674-82.537 48.012-13.116-13.037-27.89-23.702-42.4-34.85-14.257-11.451-30.323-19.847-45.562-29.629 4.5372-33.788 6.7803-67.051 7.6836-101.77-39.32-19.789-81.249-32.91-123.66-42.334-16.934 28.46-32.419 59.279-45.906 89.408-15.993-2.6724-32.06-3.662-48.148-3.8535v-0.02539c-0.11239 0-0.21676 0.02539-0.3125 0.02539-0.0999 0-0.20478-0.02539-0.30468-0.02539v0.02539c-16.118 0.19148-32.171 1.1811-48.168 3.8535-13.479-30.129-28.956-60.948-45.914-89.408zm-119.2 359.52c50.151 0 90.799 40.617 90.799 90.752 0 50.168-40.648 90.809-90.799 90.809-50.126 0-90.787-40.641-90.787-90.809 0-50.134 40.661-90.752 90.787-90.752zm427.18 0c50.122 0 90.779 40.617 90.779 90.752 0 50.168-40.657 90.809-90.779 90.809-50.159 0-90.807-40.641-90.807-90.809 0-50.134 40.647-90.752 90.807-90.752zm-213.6 53.109c16.143 0 29.254 11.908 29.254 26.561v83.59c0 14.665-13.111 26.562-29.254 26.562-16.143 0-29.227-11.898-29.227-26.562v-83.59c0-14.652 13.084-26.561 29.227-26.561z" stroke-width="4.1626"/>
  <path transform="matrix(4.1626 0 0 -4.1626 784.07 718.72)" d="m0 0-1.121-16.063c-.135-1.936-1.675-3.477-3.611-3.616l-38.555-2.751c-.094-.007-.188-.01-.281-.01-1.916 0-3.569 1.406-3.852 3.33l-2.211 14.994h-31.459l-2.211-14.994c-.297-2.018-2.101-3.469-4.133-3.32l-38.555 2.751c-1.936.139-3.476 1.68-3.611 3.616l-1.121 16.063-32.547 3.138c.015-3.498.06-7.33.06-8.093 0-34.374 43.605-50.896 97.781-51.086h.066.067c54.176.19 97.766 16.712 97.766 51.086 0 .777.047 4.593.063 8.093z"/>
  <path transform="matrix(4.1626 0 0 -4.1626 367.37 532.54)" d="m0 0c0-7.994-6.479-14.473-14.479-14.473-7.996 0-14.479 6.479-14.479 14.473s6.483 14.479 14.479 14.479c8 0 14.479-6.485 14.479-14.479"/>
  <path transform="matrix(4.1626 0 0 -4.1626 656.64 532.54)" d="m0 0c0-7.994 6.477-14.473 14.471-14.473 8.002 0 14.479 6.479 14.479 14.473s-6.477 14.479-14.479 14.479c-7.994 0-14.471-6.485-14.471-14.479"/>
 </g>
</svg>
