<?xml version="1.0" encoding="UTF-8"?>
<svg version="1.1" viewBox="0 0 888.89 888.89" xmlns="http://www.w3.org/2000/svg">
 <defs>
  <clipPath id="sqlb">
   <path transform="translate(-500 -833.33)" d="m0 1e3h1e3v-1e3h-1e3z"/>
  </clipPath>
  <clipPath id="sqla">
   <path transform="translate(-743.76 -633.27)" d="m0 1e3h1e3v-1e3h-1e3z"/>
  </clipPath>
 </defs>
 <g transform="translate(-222.22 -222.22)">
  <path transform="matrix(1.3333 0 0 -1.3333 666.67 222.22)" d="m0 0c-184.1 0-333.33-149.24-333.33-333.33s149.24-333.33 333.33-333.33 333.33 149.24 333.33 333.33-149.24 333.33-333.33 333.33m0-20c42.309 0 83.341-8.282 121.96-24.615 18.562-7.851 36.467-17.57 53.217-28.885 16.596-11.212 32.202-24.089 46.386-38.273s27.061-29.791 38.273-46.386c11.316-16.75 21.034-34.655 28.885-53.217 16.334-38.616 24.615-79.649 24.615-121.96 0-42.309-8.281-83.341-24.615-121.96-7.851-18.562-17.569-36.467-28.885-53.217-11.212-16.596-24.089-32.202-38.273-46.386s-29.79-27.061-46.386-38.273c-16.75-11.316-34.655-21.034-53.217-28.885-38.616-16.334-79.648-24.616-121.96-24.616-42.308 0-83.341 8.282-121.96 24.616-18.562 7.851-36.467 17.569-53.217 28.885-16.595 11.212-32.202 24.089-46.386 38.273s-27.061 29.79-38.273 46.386c-11.315 16.75-21.034 34.655-28.885 53.217-16.333 38.616-24.615 79.648-24.615 121.96 0 42.308 8.282 83.341 24.615 121.96 7.851 18.562 17.57 36.467 28.885 53.217 11.212 16.595 24.089 32.202 38.273 46.386s29.791 27.061 46.386 38.273c16.75 11.315 34.655 21.034 53.217 28.885 38.616 16.333 79.649 24.615 121.96 24.615" clip-path="url(#sqlb)" fill="#fffffe"/>
  <path transform="matrix(1.3333 0 0 -1.3333 991.68 488.98)" d="m0 0c1.193-8.846 1.867-18.337 1.867-28.561 0-28.177-5.279-59.864-21.129-99.49l-84.839-245.3c82.583 48.146 138.12 137.62 138.12 240.09 0 48.294-12.342 93.696-34.019 133.26m-238.88-157.55-83.356-242.17c24.894-7.324 51.212-11.318 78.476-11.318 32.347 0 63.379 5.583 92.249 15.749-0.743 1.188-1.428 2.45-1.993 3.828zm182.64 38.306c0 34.34-12.335 58.108-22.899 76.605-14.082 22.892-27.287 42.259-27.287 65.15 0 25.53 19.361 49.298 46.647 49.298 1.233 0 2.4-0.148 3.597-0.224-49.421 45.282-115.26 72.929-187.58 72.929-97.049 0-182.42-49.795-232.09-125.2 6.522-0.207 12.667-0.337 17.877-0.337 29.048 0 74.035 3.531 74.035 3.531 14.966 0.877 16.735-21.122 1.776-22.891 0 0-15.053-1.763-31.789-2.639l101.15-300.88 60.797 182.31-43.275 118.57c-14.966 0.876-29.134 2.639-29.134 2.639-14.974 0.884-13.22 23.768 1.762 22.891 0 0 45.863-3.531 73.156-3.531 29.048 0 74.042 3.531 74.042 3.531 14.974 0.877 16.736-21.122 1.77-22.891 0 0-15.068-1.763-31.79-2.639l100.39-298.59 28.656 90.801c12.731 39.683 20.195 67.798 20.195 91.566m-465.3-14.009c0-109.94 63.89-204.97 156.56-249.99l-132.51 363.03c-15.413-34.543-24.053-72.773-24.053-113.04" clip-path="url(#sqla)" fill="#fff"/>
 </g>
</svg>
