<svg xmlns="http://www.w3.org/2000/svg" xmlns:xlink="http://www.w3.org/1999/xlink" version="1.1" x="0px" y="0px" viewBox="0 0 100 100" style="enable-background:new 0 0 100 100;" xml:space="preserve"><g><path d="M77,86.2c-9.3-1-19.4-3-25.8-10.5c-5-5.8-6.1-12.7-4.1-20c2.6-9.5,10.3-19.6,7.4-29.9c-2.5-8.8-10.7-8-18-6.3   c-7.4,1.8-14.7,4.9-22.3,5.4c-6.1,0.4-12-3.2-10.8-9.9C4.1,11,6,7.5,8.8,4.3c0.6-0.7-1.5-1.8-2-1.2C0.9,9.9-3.2,23,8.3,26   c6.3,1.7,13.5-0.4,19.6-2.1c4-1.1,8.1-2.8,12.3-3.4c10.1-1.3,13.3,2.9,12.4,11.3C51.2,45,39.3,57,45.8,70.5   c5.8,12.1,19.7,15.9,31.9,17.1C79.3,87.8,77.8,86.3,77,86.2z"/><path d="M98.4,95.1c-5.6-5.8-11.8-10.6-18.8-14.4c-0.5-0.3-0.7-0.2-0.8,0c-0.2,0-0.3,0.1-0.3,0.2c-0.7,3.6,1,6.5,3.5,8.9   c-2.4,1-4.7,2.2-6.8,3.8c0,0,0,0,0,0c-0.5-0.1-0.6,0.1-0.6,0.5c-0.3,0.3,0.1,0.8,0.7,1.1c0.2,0.1,0.3,0.3,0.5,0.3   c7.6,1.8,15.2,2.2,22.9,1.1C99.4,96.3,98.6,95.2,98.4,95.1z M78.2,94.2c1.9-1.3,4-2.4,6.2-3.3c0.5-0.2,0.2-0.6-0.1-0.9   c-2.3-1.9-3.9-4.3-3.7-7.2c5.8,3.3,11,7.3,15.7,11.9C90.3,95.5,84.2,95.3,78.2,94.2z"/></g></svg>