<?xml version="1.0" encoding="UTF-8"?>
<svg version="1.1" viewBox="0 0 325.36 238.92" xmlns="http://www.w3.org/2000/svg" xmlns:cc="http://creativecommons.org/ns#" xmlns:dc="http://purl.org/dc/elements/1.1/" xmlns:rdf="http://www.w3.org/1999/02/22-rdf-syntax-ns#" xmlns:xlink="http://www.w3.org/1999/xlink">
 <defs>
  <style>.cls-1{fill:none;}</style>
  <linearGradient id="linearGradient9" x1="-.020908" x2="325.34" y1="119.47" y2="119.47" gradientUnits="userSpaceOnUse">
   <stop stop-color="#3b82f6" offset="0"/>
   <stop stop-color="#fff" offset="1"/>
  </linearGradient>
 </defs>
 <path transform="translate(.020908 -.01357)" d="m314.68 189.1c-5.83 2.27-11.58 4.9-17.58 6.69a43.88 43.88 0 0 1-13.69 2.05c-3.3-0.12-7.48-0.84-10.09-4.23-3.54-4.61-1.32-10.89-1.12-11.61 1-2.14 0.87-2.76 0.64-2.94-0.4-0.3-1.37 0.53-3.71 1.81-1.42 0.78-2 1-3.09 1.52-12.18 6.13-24.28 12.44-36.58 18.32-6.49 3.11-13.38 4.9-20.82 4.08-1.8-0.2-4 1.23-5.69 2.4-25.25 17.37-52.48 29.68-83.45 31.66a61.5 61.5 0 0 1-21.08-2.59c-10-3-13.79-12-9.84-21.52a39.74 39.74 0 0 1 7.52-12.24c23.67-24.64 52.38-39.53 86.54-43.18 8.82-0.94 17.52 0.26 21.51 9.7 1.74 4.12 1.71 9.05 2.08 13.64 0.32 3.88 0.07 7.8 0.79 11.89 7.86-5.58 14.5-11.79 17.85-20.58 2.77-7.28 0.95-14.36-4.65-19.23-7.85-6.82-16-13.72-25.15-18.54-25.48-13.48-53.47-20.11-81.16-27.36-1.59-0.41-4.39 1-5.61 2.41-12.29 14.24-24 29-36.61 42.91-10.56 11.6-22.57 21.84-37.11 28.29a51.9 51.9 0 0 1-17.25 4.16c-8.85 0.58-16-4.83-16.92-13.63a67.9 67.9 0 0 1 1.59-24.08c8.3-31 23.87-58.53 42.86-84 10.69-14.4 21.74-28.9 35.03-40.9a104.43 104.43 0 0 1 19.31-13.92c7.07-3.89 11-2.36 16.09 4.14 3.77-2.25 7.44-4.86 11.45-6.72 5.7-2.66 11.47-5.5 17.53-6.95 10.99-2.55 18.59 4.22 17.23 15.45a75.13 75.13 0 0 1-5.06 19.18c-8.28 20.36-20.94 38.18-33.56 56-2 2.82-4 5.65-6.42 9.1 3 1 5.24 1.79 7.55 2.48 29 8.71 57 19.77 82.09 36.92a87.78 87.78 0 0 1 16.76 14.79c8.68 10 8.88 20.62 1.42 31.62-2.85 4.21-6.33 8-10.48 13.18 4.56-1.36 8-1.92 11.06-3.37 10.95-5.24 21.75-10.78 32.62-16.19 6.1-3 12.1-6.33 18.42-8.85 2-0.81 5.74-0.32 7.08 1.09 1.68 1.77 1.66 5.07 1 7.26a9 9 0 0 1-0.76 1.83c-0.39 0.55-3 4.36-1.67 6.41 1.18 1.82 4.79 1.25 7.62 0.78 7.8-1.3 15.05-5.37 22.89-8.46 5.09-2 7.21-0.06 9.11 0.91 3.66 1.87 5.1 5.67 3.55 7.11-0.77 0.72-1.91-0.07-4.89 0.11a16.28 16.28 0 0 0-5.15 1.2zm-203.91-171.71c-3.68-3.75-7.33-2.43-9.89-0.37-8.38 6.72-17.12 13.25-24.37 21.1-15.18 16.43-27.28 35.21-38.34 54.62-10.72 18.81-21 37.87-26.15 59.11a67.79 67.79 0 0 0-1.73 16.26c0.05 5.61 3.46 8 9.05 7.11a24.69 24.69 0 0 0 8.07-2.42c6.78-3.82 13.82-7.45 19.89-12.25 19.52-15.42 36.5-33.49 52.64-52.35a16.29 16.29 0 0 0 1.49-2.75c-2.18-0.67-3.93-1.12-5.61-1.74-8.08-3-16.5-5.39-24.14-9.29-10.68-5.42-13.68-14.72-8.79-25.68 2.56-5.69 5.74-11.52 10-15.93 10.63-11 22-21.12 33.18-31.58 1.42-1.3 2.98-2.43 4.7-3.84zm89.82 166.49h-0.14c0-2 0.07-4 0-6-0.49-11.73-5.07-16.1-16.82-16a17.51 17.51 0 0 0-4.47 0.37c-8.78 2.4-17.84 4.17-26.24 7.56-17.82 7.2-34.8 16.25-48.49 30-5.12 5.16-9.11 11.79-12.34 18.37-2.63 5.36-0.16 10.4 5.62 11.72 7 1.59 14.51 2.8 21.57 2 28-3.06 53.17-14.14 77-28.67 3.83-2.32 5.94-4.51 4.48-9.45-0.91-3.04-0.17-6.58-0.17-9.9zm-46.25-163.74c0.21-11.21-3.34-14.7-10.34-11.6-10 4.38-19.22 10.35-28.68 15.83-1.29 0.75-3.24 2.4-4.51 3.31a82.54 82.54 0 0 0-8.08 6.65c-11.73 10.67-23.56 21.26-30.89 35.67-4.32 8.48-3 13.62 5.74 17.41 9.11 4 18.72 6.83 28.21 9.86 1.24 0.4 3.65-0.61 4.55-1.74 14.8-18.53 28.78-37.53 38.57-59.25 2.76-6.14 4.34-12.81 5.43-16.14z" fill="url(#linearGradient9)"/>
</svg>
