<?xml version="1.0" encoding="UTF-8"?>
<svg data-name="Layer 2" version="1.1" viewBox="0 0 229.78 177.93" xmlns="http://www.w3.org/2000/svg">
 <ellipse cx="97.585" cy="89.943" rx="13.385" ry="10.093" fill="none" stroke="#fff" stroke-width="3.8136"/>
 <ellipse cx="137.79" cy="89.943" rx="13.385" ry="10.093" fill="none" stroke="#fff" stroke-width="3.814"/>
 <path d="m229.78 86.317c0-20.42-3.7984-37.948-23.018-52.128-12.81-9.45-27.065-16.937-44.095-20.047-13.048-9.8039-41.832-14.915-63.49-14.048-24.13 0.96666-50.67 7.55-69.26 21.26-19.22 14.19-31.157 33.243-29.81 53.66 1.2152 18.426 6.9297 32.738 24.65 46.718 0.13 3-1 10.06-1.73 14.47-2.3 14.14-4.12 25.31 4 29.05 1.3282 0.61671 2.7756 0.93419 4.24 0.93 6.52 0 14-5.86 23.61-13.43 5.6368-4.2205 11.315-11.862 17.404-12.504 18.3 12.7 37.722 20.648 62.722 20.648 8.7623 9e-3 28.322-2.5787 36.909-4.3228 4.1795 0.24452 10.68 6.9 15.37 10.58 9.1432 7.9012 11.128 10.78 17.648 10.78 2.6239-0.3242 1.9844-2.095 3.3116-2.7148 1.2233-4.9193-0.45953-6.0529-2.7895-21.021-2.4588-12.514-1.3456-16.783 1.848-23.115 17.79-13.99 22.48-25.235 22.48-44.765zm-177.36 60.98c-3.11 2.45-15.89 12.154-22.033 12.169-5.2806-4.4297-2.6394-18.144-2.0994-21.414 2.19-13.46 4.4704-19.374-1.3896-23.814-15-11.39-20.754-27.411-20.754-42.971 0-33.59 46.591-64.082 93.501-64.082 26.959-0.13359 43.458 2.0568 50.424 7.36-45.146 1.1528-55.155 8.8268-72.738 19.966-19.22 14.18-31.203 34.476-29.459 54.821 1.6393 19.116 6.6413 27.559 16.676 42.26 0.91825 7.654-7.8505 12.205-12.128 15.703zm148.23-18.554c-5.86 4.44-4.41 13.33-2.22 26.79 0.54 3.28 1.29 7.93 1.63 11.53-3.45-2.27-7.94-5.79-11-8.24-10.764-7.5674-11.573-7.8161-17.463-7.9509-5.6755 0.60413-8.4953 1.4613-11.51 2.045-7.8346 1.6328-17.001 1.888-25.004 1.8775-47.378 0.46839-81.193-34.262-81.193-67.852 0-33.59 40.736-66.66 87.646-66.531 52.098 0.14408 82.026 23.573 82.494 66.531-0.05 15.52-8.34 30.37-23.38 41.76z"/>
 <ellipse cx="178" cy="89.943" rx="13.385" ry="10.093" fill="none" stroke="#fff" stroke-width="3.8136"/>
</svg>
