<?xml version="1.0" encoding="UTF-8"?>
<svg version="1.1" viewBox="0 0 64.151 63.611" xml:space="preserve" xmlns="http://www.w3.org/2000/svg"><g transform="translate(-1.9246 -2.1946)"><path d="m19.713 21.796h18.468c0.41406 0 0.75-0.33594 0.75-0.75s-0.33594-0.75-0.75-0.75h-18.468c-0.41406 0-0.75 0.33594-0.75 0.75s0.33594 0.75 0.75 0.75z"/><path d="m19.713 25.975h8.2979c0.41406 0 0.75-0.33594 0.75-0.75s-0.33594-0.75-0.75-0.75h-8.2979c-0.41406 0-0.75 0.33594-0.75 0.75s0.33594 0.75 0.75 0.75z"/><path d="m9.8065 20.182c-1.4194 1.0347-2.3022 3.0742-0.88721 5.1069 1.7441 2.5078 6.3009 2.1408 6.8662-1.5942 0.15674-1.0361-0.09131-2.0737-0.68115-2.8462-1.458-1.9116-3.7686-1.7822-5.2979-0.6665zm4.4956 3.2881c-0.35619 2.3555-3.1638 2.3823-4.1514 0.9624v-4.88e-4c-0.90186-1.2949-0.27295-2.4458 0.53906-3.0376 1.013-0.73829 2.3717-0.75094 3.2222 0.36377 0.34424 0.45117 0.48682 1.0757 0.39014 1.7119z"/><path d="m19.713 33.022h18.468c0.41406 0 0.75-0.33594 0.75-0.75s-0.33594-0.75-0.75-0.75h-18.468c-0.41406 0-0.75 0.33594-0.75 0.75s0.33594 0.75 0.75 0.75z"/><path d="m19.713 37.202h8.2979c0.41406 0 0.75-0.33594 0.75-0.75s-0.33594-0.75-0.75-0.75h-8.2979c-0.41406 0-0.75 0.33594-0.75 0.75s0.33594 0.75 0.75 0.75z"/><path d="m8.9193 36.515c1.748 2.5133 6.3018 2.1336 6.8662-1.5938 0.15674-1.0366-0.09131-2.0742-0.68115-2.8472-2.8874-3.7889-8.9904 0.41003-6.1851 4.4409zm4.4927-0.28223c-0.98728 0.70209-2.5753 0.41204-3.2612-0.57422-1.6804-2.4137 2.0376-4.935 3.7612-2.6753 0.72559 0.95304 0.47936 2.5517-0.5 3.2495z"/><path d="m19.713 44.248h18.468c0.41406 0 0.75-0.33594 0.75-0.75s-0.33594-0.75-0.75-0.75h-18.468c-0.41406 0-0.75 0.33594-0.75 0.75s0.33594 0.75 0.75 0.75z"/><path d="m28.011 46.927h-8.2979c-0.41406 0-0.75 0.33594-0.75 0.75s0.33594 0.75 0.75 0.75h8.2979c0.41406 0 0.75-0.33594 0.75-0.75s-0.33594-0.75-0.75-0.75z"/><path d="m8.9193 47.742c0.70795 1.0179 1.9471 1.604 3.2046 1.604 3.3278 0 4.6674-3.8344 2.9805-6.0449-2.8828-3.7838-8.9931 0.4061-6.1851 4.4409zm4.4927-0.28223c-0.98241 0.69862-2.5725 0.41602-3.2612-0.57422-1.6804-2.4137 2.0376-4.935 3.7612-2.6753 0.72559 0.95305 0.47936 2.5517-0.5 3.2495z"/><path d="m64.763 39.084c-0.42725-0.48584-0.85498-0.97266-1.1792-1.3335-0.39502-0.43994-1.0796-0.47559-1.5254-0.08105-0.11072 0.09787-13.229 10.997-13.335 11.084 0.05002-33.072 0.27861-31.096-0.04932-31.643-4.28e-4 -0.0037 0.0012-0.0071 7.32e-4 -0.0108-0.66504-4.9561-4.6182-9.6055-9.1953-10.815-0.18207-0.047241-0.36273-0.016602-0.51923 0.060181-1.363-0.44994-2.135-0.09815-33.632-0.5177-0.12402-8e-3 -0.24835 0.037659-0.36407 0.10248 0.00317-0.04718 5e-3 -0.086609 5e-3 -0.1145-1.001 0.79199-1.8937 1.441-2.7224 2.4859-0.15063 0.18994-0.22992 0.43256-0.2312 0.67499-0.099915 18.785-0.2171 37.947 0.24438 56.232 0.00842 0.33423 0.28314 0.59808 0.61743 0.59668l43.445-0.18103c0.59363-0.0025 1.1305-0.34045 1.4113-0.86346 0.44965-0.83765 0.81551-1.7549 0.94757-2.1623-0.0089 6.11e-4 -0.01782 7.94e-4 -0.02673 0.0014 0.03594-0.27517 0.01619-1.755 0.03802-4.8647 5.4636-4.9053 11.03-9.8311 16.646-14.512 0.58654-0.48893 0.57868-1.0655 0.58386-1.5533 0.08264-0.15662 0.13428-0.32934 0.1485-0.50781 0.06713-0.84144-0.59154-1.1543-1.3076-2.0776zm-2.0181-0.02051c0.07835 0.08825 1.7246 1.9555 1.7427 1.9761-7.8496 6.4038-13.215 11.126-19.514 17.181-3.5133-3.2852-4.7523-3.9893-8.1431-7.7261 0.93864-0.87275 1.6709-1.5845 2.5708-2.4209 4.6179 4.797 4.9105 5.8035 5.6338 5.8193 0.37549 0.01172 0.37598 0.01025 2.4619-2.0234 1.9362-1.8862 13.602-11.36 15.248-12.806zm-15.685-22.487h-5.4116c-0.55437 0-0.97517 0.14623-1.105-0.04443-0.03565-0.0542-0.04053-0.11133-0.0293-0.35742 0.0049-0.11377 0.0098-0.23144 0.0063-0.34961-0.13003-5.5291 0.18626-6.2967-0.07446-7.6013 3.1739 1.4373 5.8644 4.7949 6.614 8.3527zm0.11578 46.84h-41.819v-56.079c30.542 0.39903 29.449 0.067582 32.841 0.36914 1.3115 0.11618 0.67024 1.7183 0.82324 8.1572 0.01 0.34605-0.12 0.90049 0.27686 1.5034 0.70903 1.0371 1.8304 0.70898 2.3506 0.70898h5.6914l-0.12189 31.975c-0.35535 0.34013-0.80723 0.78391-1.3644 1.3246-3.3682-3.5318-3.8006-4.7972-5.426-4.8052-0.38354-2e-3 -0.75861-0.03449-1.1834-0.13116 0.01941 0.02124 0.03662 0.03949 0.05597 0.06067-0.6989 0.06173-0.61355 0.23843-3.6699 3.061-0.5 0.4624-0.53613 1.249-0.08105 1.7524 3.7694 4.1787 4.9738 4.7505 8.9141 8.4868 0.14502 0.13721 0.33057 0.20557 0.51611 0.20557 0.0329 0 0.06409-0.01416 0.09668-0.01843 0.52667 0.13873 1.0892 0.01611 1.4987-0.35278 0.20276-0.18262 0.40869-0.36615 0.61176-0.54889z"/><path d="m49.706 2.266c-0.37402-0.17676-0.82178-0.013672-0.99707 0.36133l-1.5679 3.3477c-0.17578 0.37549-0.01416 0.82178 0.36084 0.99756 0.37224 0.17465 0.82106 0.015836 0.99756-0.36084l1.5679-3.3486c0.17578-0.375 0.013672-0.82178-0.36133-0.99707z"/><path d="m51.061 9.4071 3.8071-2.9238c0.32812-0.25195 0.39014-0.72314 0.1377-1.0518-0.25146-0.32812-0.72266-0.38916-1.0518-0.1377l-3.8071 2.9238c-0.32812 0.25195-0.39014 0.72314-0.1377 1.0518 0.25147 0.32724 0.72184 0.39075 1.0518 0.1377z"/><path d="m52.255 11.536c-0.40869-0.06201-0.79102 0.22412-0.8501 0.63428-0.05957 0.41016 0.22461 0.79053 0.63428 0.8501l5.0664 0.73633c0.40747 0.05976 0.79038-0.2227 0.8501-0.63428 0.05957-0.40967-0.22412-0.79053-0.63428-0.8501z"/></g></svg>
