<?xml version="1.0" encoding="UTF-8"?>
<svg class="custom-e-commerce-cart" enable-background="new 0 0 65 65" version="1.1" viewBox="0 0 65 65" xml:space="preserve" xmlns="http://www.w3.org/2000/svg">
<g>
<path d="m57.4 21.699-2.5 8.2012h-21.527c-0.01413 0.31436-0.01807 0.62897-2e-3 0.94336 0.0054 0.1821 0.0111 0.36432 0.01367 0.54688l0.61528 0.009766v6.7988l-2.543-0.01953c-0.42366 0.37157-0.86332 0.72582-1.291 1.0918-0.20428 0.17797-0.37037 0.32008-0.5332 0.46289 1.5058 0.0024 2.7177-0.03516 4.3672-0.03516v7.2012h-6.3008l-0.48633-4.75c-0.09455 0.09842-0.18944 0.19567-0.28516 0.29297-0.33672 0.33914-0.67764 0.67401-1.0156 1.0117l0.28711 3.3457h-6.2988l-0.43945-1.3906c-0.19936 0.01885-0.39926 0.04147-0.59766 0.07031-0.17422 0.03376-0.34856 0.0617-0.52148 0.10156-0.09872 0.02275-0.24732 0.06339-0.40625 0.10742l0.86523 2.8106h30.398l-1.6992 5.5c-0.2 0-0.39922-0.09961-0.69922-0.09961h-22.4c-2.7 0-4.8008 2.1988-4.8008 4.7988s2.2008 4.8008 4.8008 4.8008c2.7 0 4.7988-2.2008 4.7988-4.8008 0-1.3-0.49844-2.4988-1.3984-3.2988h15.398c-0.8 0.9-1.3984 1.9988-1.3984 3.2988 0 2.7 2.1988 4.8008 4.7988 4.8008 2.7 0 4.8008-2.2008 4.8008-4.8008 0-1.9-1.1012-3.5988-2.7012-4.2988l1.9004-6 5-16.201 2.8008-8.8984h6.4004v-1.5h-7.4004zm-11.6 9.6016h8.6992l-0.5 1.3984-1.6992 5.4004h-7.6016zm-14.979 0.03906c-0.0025 0.0031-0.0053 0.0067-0.0078 0.0098h0.0078c7.9e-5 -0.0031-7.9e-5 -0.0067 0-0.0098zm4.6777 0.06055h8.6992l-1.0996 6.7988h-7.5996zm0.09961 8.2988h7.4004l-1.0996 7.2012h-6.3008zm8.9004 0h7.4004l-2.2012 7.2012h-6.2988zm-20.1 15.701c1.8 0 3.2988 1.4988 3.2988 3.2988s-1.4988 3.3008-3.2988 3.3008-3.3008-1.5008-3.3008-3.3008 1.5008-3.2988 3.3008-3.2988zm22.5 0c1.8 0 3.2988 1.4988 3.2988 3.2988s-1.4988 3.3008-3.2988 3.3008-3.3008-1.5008-3.3008-3.3008 1.5008-3.2988 3.3008-3.2988z"/>
<path d="m38.9 18.4c0.3 0 0.6 0.1 0.9 0.1 2.5 0 4.6-1.8 5-4.3 0.5-2.8-1.4-5.4-4.2-5.9-0.3 0-0.6-0.1-0.9-0.1-2.5 0-4.6 1.8-5 4.3-0.2 1.3 0.1 2.7 0.9 3.8 0.7 1.1 1.9 1.9 3.3 2.1zm-2.7-5.7c0.3-1.7 1.8-3 3.6-3 0.2 0 0.4 0 0.6 0.1 2 0.3 3.3 2.2 3 4.2-0.3 1.9-2.2 3.3-4.2 3-1-0.2-1.8-0.7-2.3-1.5-0.7-0.9-0.9-1.8-0.7-2.8z"/>
<path d="m24.3 30.1c0.4-2.1 0-4.2-1.2-6s-3-3-5-3.4c-0.5-0.1-1.1-0.2-1.6-0.2-3.8 0-7 2.7-7.8 6.4-0.9 4.3 1.9 8.5 6.2 9.3 0.5 0.1 1.1 0.2 1.6 0.2 3.8 0 7-2.6 7.8-6.3zm-7.8 4.8c-0.4 0-0.9 0-1.3-0.1-3.5-0.7-5.7-4.1-5-7.6 0.6-3 3.3-5.2 6.3-5.2 0.4 0 0.9 0 1.3 0.1 1.7 0.3 3.1 1.3 4.1 2.7 0.9 1.4 1.3 3.1 0.9 4.8-0.6 3.2-3.2 5.3-6.3 5.3z"/>
</g>
<g>
<path class="custom-gear" d="m30.7 16.7-1.7 1.7 2.4 3.4 2.2-1c0.6 0.5 1.3 1 2.1 1.3v2.4l4.1 0.7 0.8-2.3c0.8-0.1 1.6-0.3 2.4-0.5l1.8 1.7 3.4-2.4-1-2.2c0.5-0.6 1-1.3 1.3-2.1h2.4l0.7-4.1-2.3-0.8c-0.1-0.8-0.3-1.6-0.5-2.4l1.7-1.8-2.4-3.4-2.2 1c-0.6-0.5-1.3-1-2.1-1.3v-2.4l-4.1-0.7-0.8 2.3c-0.9 0-1.7 0.2-2.5 0.5l-1.8-1.7-3.3 2.4 1 2.2c-0.5 0.6-1 1.3-1.3 2.1h-2.4l-0.7 4.1 2.3 0.8c0 0.9 0.2 1.7 0.5 2.5zm-0.9-5.9h2.2l0.2-0.5c0.4-0.9 0.9-1.8 1.6-2.5l0.3-0.4-0.9-2 1.4-1 1.5 1.6 0.5-0.2c0.9-0.4 1.9-0.6 2.9-0.7h0.5l0.8-2 1.6 0.3v2.2l0.5 0.2c0.9 0.4 1.7 0.9 2.5 1.6l0.4 0.3 2-0.9 1 1.4-1.8 1.5 0.2 0.5c0.4 0.9 0.6 1.9 0.7 2.9v0.5l2 0.8-0.3 1.6h-2.2l-0.2 0.5c-0.4 0.9-0.9 1.7-1.6 2.5l-0.3 0.4 0.9 2-1.4 1-1.6-1.5-0.5 0.2c-0.9 0.4-1.9 0.6-2.9 0.6h-0.5l-0.8 2-1.6-0.3v-2.2l-0.5-0.2c-0.9-0.4-1.8-0.9-2.5-1.6v-0.4l-2 0.9-1-1.4 1.5-1.6-0.2-0.5c-0.4-0.9-0.6-1.9-0.7-2.9v-0.5l-2-0.8z"/>
</g>
<g>
<path class="custom-gear-reverse" d="m16.4 12-5.2012 1-0.09961 3.4004c-1.2 0.5-2.2992 1.2-3.1992 2l-3.0996-1.4004-3.1016 4.3008 2.3008 2.3984c-0.5 1.2-0.80039 2.4012-0.90039 3.7012l-3.1992 1.0996 1.0996 5.3008 3.4004 0.09961c0.5 1.2 1.2 2.1992 2 3.1992l-1.4004 3.0996 4.3008 3.1016 2.3984-2.3008c1.2 0.5 2.4012 0.70039 3.7012 0.90039l1.0996 3.1992c0.0492 0.06776 0.10001 0.13461 0.15234 0.20117 0.60714-0.09866 1.2117-0.21135 1.8184-0.31445 1.1151-0.17546 2.235-0.32648 3.3535-0.47852 0.0097-1.2254 0.03936-2.5517 0.07617-3.8086 1.0544-0.47929 2.4968-1.1937 3.3984-1.9473l0.0332-0.0039 2.9609 0.95898c1.3026-1.6851 0.01633-0.0086 1.3242-1.6719l1.582-2.2344-2.2988-2.4004c0.3-0.6 0.39961-1.3 0.59961-2 0.08738-0.5642 0.14184-1.1356 0.19922-1.7012l3.2012-1.0996-0.90039-5.2988-3.4004-0.10156c-0.5-1.2-1.2-2.1992-2-3.1992l1.4004-3.0996-4.4004-3.0996-2.4004 2.2988c-1.2-0.5-2.3992-0.80039-3.6992-0.90039zm-0.90039 1.5996 1.0996 2.9004h0.5c1.4 0.1 2.7996 0.4 4.0996 1l0.5 0.19922 2.3008-2.1992 2.3008 1.6992-1.3008 2.8008 0.30078 0.40039c1 1 1.6992 2.2996 2.1992 3.5996l0.19922 0.5 3.1016 0.09961 0.5 2.8008-2.9004 1.0996v0.5c-0.1 1.4-0.4 2.7996-1 4.0996l-0.20117 0.5 2.2012 2.3008-1.7012 2.2988-2.7988-1.2988-0.40039 0.29883c-2.0738 1.8853-3.9029 2.0974-4.1191 2.3242l-0.08008 3.1758-2.8008 0.5-1.0996-2.8984h-0.5c-1.4-0.1-2.7996-0.4-4.0996-1l-0.5-0.20117-2.3008 2.2011-2.3008-1.7012 1.3008-2.7988-0.30078-0.40039c-1-1.1-1.6992-2.2996-2.1992-3.5996l-0.19922-0.5-3.1016-0.10156-0.5-2.7988 2.9004-1.0996v-0.5c0.1-1.4 0.4-2.8016 1-4.1016l0.20117-0.5-2.2012-2.2988 1.7012-2.3008 2.7988 1.3008 0.40039-0.30078c1-1 2.2996-1.6992 3.5996-2.1992l0.5-0.20117 0.09961-3.0996zm0.40039 26.701c0.2837-0.04225 0.56793-0.08435 0.85156-0.12695-0.0014-0.0012-0.0025-0.0027-0.0039-0.0039z"/>
</g></svg>
