<svg class="custom-e-commerce-cart" xmlns="http://www.w3.org/2000/svg" xmlns:xlink="http://www.w3.org/1999/xlink" version="1.1" x="0px" y="0px" viewBox="0 0 65 65" enable-background="new 0 0 65 65" xml:space="preserve">
<g><path d="M57.4,21.7l-2.5,8.2H29.7c0-0.1,0-0.1,0-0.2l3.2-1.1l-0.9-5.3l-3.4-0.1c-0.5-1.2-1.2-2.2-2-3.2l1.4-3.1l-4.4-3.1l-2.4,2.3   c-1.2-0.5-2.4-0.8-3.7-0.9l-1.1-3.2L11.2,13l-0.1,3.4c-1.2,0.5-2.3,1.2-3.2,2l-3.1-1.4l-3.1,4.3l2.3,2.4c-0.5,1.2-0.8,2.4-0.9,3.7   l-3.2,1.1L1,33.8l3.4,0.1c0.5,1.2,1.2,2.2,2,3.2l-1.4,3.1l4.3,3.1l2.4-2.3c1.2,0.5,2.4,0.7,3.7,0.9l1.1,3.2l1.2-0.2l1.1,3.6h30.4   L47.5,54c-0.2,0-0.4-0.1-0.7-0.1H24.4c-2.7,0-4.8,2.2-4.8,4.8s2.2,4.8,4.8,4.8c2.7,0,4.8-2.2,4.8-4.8c0-1.3-0.5-2.5-1.4-3.3h15.4   c-0.8,0.9-1.4,2-1.4,3.3c0,2.7,2.2,4.8,4.8,4.8c2.7,0,4.8-2.2,4.8-4.8c0-1.9-1.1-3.6-2.7-4.3l1.9-6h0l5-16.2l2.8-8.9h6.4v-1.5H57.4   z M27.7,58.7c0,1.8-1.5,3.3-3.3,3.3c-1.8,0-3.3-1.5-3.3-3.3c0-1.8,1.5-3.3,3.3-3.3C26.2,55.4,27.7,56.9,27.7,58.7z M50.2,58.7   c0,1.8-1.5,3.3-3.3,3.3s-3.3-1.5-3.3-3.3c0-1.8,1.5-3.3,3.3-3.3S50.2,56.9,50.2,58.7z M54,32.7l-1.7,5.4h-7.6l1.1-6.8h8.7L54,32.7z    M28.1,40.1l0.3-0.4H34v7.2h-6.3l-1.2-7.5L28.1,40.1z M35.5,39.7H43l-1.1,7.2h-6.3V39.7z M35.5,38.2v-6.8h8.7l-1.1,6.8H35.5z    M34,31.4v6.8h-4.5l1.7-2.4l-2.3-2.4c0.3-0.6,0.4-1.3,0.6-2H34z M16.4,40.3l-0.5,0c-1.4-0.1-2.8-0.4-4.1-1l-0.5-0.2l-2.3,2.2   l-2.3-1.7l1.3-2.8l-0.3-0.4c-1-1.1-1.7-2.3-2.2-3.6l-0.2-0.5l-3.1-0.1l-0.5-2.8l2.9-1.1l0-0.5c0.1-1.4,0.4-2.8,1-4.1l0.2-0.5   l-2.2-2.3l1.7-2.3l2.8,1.3l0.4-0.3c1-1,2.3-1.7,3.6-2.2l0.5-0.2l0.1-3.1l2.8-0.5l1.1,2.9l0.5,0c1.4,0.1,2.8,0.4,4.1,1l0.5,0.2   l2.3-2.2l2.3,1.7l-1.3,2.8l0.3,0.4c1,1,1.7,2.3,2.2,3.6l0.2,0.5l3.1,0.1l0.5,2.8l-2.9,1.1l0,0.5c-0.1,1.4-0.4,2.8-1,4.1l-0.2,0.5   l2.2,2.3l-1.7,2.3l-2.8-1.3l-0.4,0.3c-1.1,1-2.3,1.7-3.6,2.2l-0.5,0.2l-0.1,3.1l-2.8,0.5L16.4,40.3z M19.2,44.5l2.6-0.4l0.1-3.4   c1.1-0.5,2.1-1.1,3-1.9l1.3,8h-6.3L19.2,44.5z M43.4,46.9l1.1-7.2h7.4l-2.2,7.2H43.4z"/>
<path d="M30.7,16.7L29,18.4l2.4,3.4l2.2-1c0.6,0.5,1.3,1,2.1,1.3l0,2.4l4.1,0.7l0.8-2.3c0.8-0.1,1.6-0.3,2.4-0.5l1.8,1.7l3.4-2.4   l-1-2.2c0.5-0.6,1-1.3,1.3-2.1l2.4,0l0.7-4.1l-2.3-0.8c-0.1-0.8-0.3-1.6-0.5-2.4l1.7-1.8l-2.4-3.4l-2.2,1c-0.6-0.5-1.3-1-2.1-1.3   l0-2.4l-4.1-0.7l-0.8,2.3C38,3.8,37.2,4,36.4,4.3l-1.8-1.7L31.3,5l1,2.2c-0.5,0.6-1,1.3-1.3,2.1l-2.4,0l-0.7,4.1l2.3,0.8   C30.2,15.1,30.4,15.9,30.7,16.7z M29.8,10.8l2.2,0l0.2-0.5c0.4-0.9,0.9-1.8,1.6-2.5l0.3-0.4l-0.9-2l1.4-1L36.1,6l0.5-0.2   c0.9-0.4,1.9-0.6,2.9-0.7l0.5,0l0.8-2l1.6,0.3l0,2.2l0.5,0.2c0.9,0.4,1.7,0.9,2.5,1.6l0.4,0.3l2-0.9l1,1.4L47,9.7l0.2,0.5   c0.4,0.9,0.6,1.9,0.7,2.9l0,0.5l2,0.8l-0.3,1.6l-2.2,0l-0.2,0.5c-0.4,0.9-0.9,1.7-1.6,2.5l-0.3,0.4l0.9,2l-1.4,1l-1.6-1.5l-0.5,0.2   c-0.9,0.4-1.9,0.6-2.9,0.6l-0.5,0l-0.8,2l-1.6-0.3l0-2.2l-0.5-0.2c-0.9-0.4-1.8-0.9-2.5-1.6L33.9,19l-2,0.9l-1-1.4l1.5-1.6   l-0.2-0.5c-0.4-0.9-0.6-1.9-0.7-2.9l0-0.5l-2-0.8L29.8,10.8z"/>
<path d="M38.9,18.4c0.3,0,0.6,0.1,0.9,0.1c2.5,0,4.6-1.8,5-4.3c0.5-2.8-1.4-5.4-4.2-5.9c-0.3,0-0.6-0.1-0.9-0.1   c-2.5,0-4.6,1.8-5,4.3c-0.2,1.3,0.1,2.7,0.9,3.8C36.3,17.4,37.5,18.2,38.9,18.4z M36.2,12.7c0.3-1.7,1.8-3,3.6-3   c0.2,0,0.4,0,0.6,0.1c2,0.3,3.3,2.2,3,4.2c-0.3,1.9-2.2,3.3-4.2,3c-1-0.2-1.8-0.7-2.3-1.5C36.2,14.6,36,13.7,36.2,12.7z"/>
<path d="M24.3,30.1c0.4-2.1,0-4.2-1.2-6c-1.2-1.8-3-3-5-3.4c-0.5-0.1-1.1-0.2-1.6-0.2c-3.8,0-7,2.7-7.8,6.4   c-0.9,4.3,1.9,8.5,6.2,9.3c0.5,0.1,1.1,0.2,1.6,0.2c0,0,0,0,0,0C20.3,36.4,23.5,33.8,24.3,30.1z M16.5,34.9c-0.4,0-0.9,0-1.3-0.1   c-3.5-0.7-5.7-4.1-5-7.6c0.6-3,3.3-5.2,6.3-5.2c0.4,0,0.9,0,1.3,0.1c1.7,0.3,3.1,1.3,4.1,2.7c0.9,1.4,1.3,3.1,0.9,4.8   C22.2,32.8,19.6,34.9,16.5,34.9z"/>
</g></svg>