<?xml version="1.0" encoding="UTF-8"?>
<svg version="1.1" viewBox="0 0 61.826 57.057" xmlns="http://www.w3.org/2000/svg">
 <g transform="translate(-19.074 -21.527)">
  <path d="m71.109 50.746c-2.5972 1.9812-5.2715 1.9321-10.808 2.4164-1.24-0.06-2.601-0.69225-3.901-0.78225 4.7-5.12 3.49-15.75-5.12-17.16-6.31-1-11.78 2.9-12.34 9.34-0.25571 3.4569 1.3337 6.7916 4.18 8.77-9.6943 3.5528-14.514 14.433-10.63 24 0.19623 0.5746 0.72351 0.97105 1.33 1 1.4712 0.26648 2.9727 0.32371 4.46 0.17h9.9c5.1 0 10.24-0.34 15.34-0.15 0.96975-0.0055 1.7545-0.79025 1.76-1.76-0.05196-1.8096-0.24926-3.612-0.59-5.39-0.29004-1.1037-0.4775-2.2318-0.56-3.37 0-0.36 0-0.63 0.05-0.85 0.06 0 0.16-0.1 0.29-0.32 1.26-2 4.92-4 6.77-5.55s5.0348-4.1355 5.9-6.0922c1.6913-5.0032 0.34478-9.1354-2.2997-7.1182zm-19.71-12.686c4.9648 0.7871 6.0364 5.6351 5.2764 8.9651-1.0898 3.7592-3.8633 5.5284-8.4155 4.7755-3.13-0.78-6.5751-2.821-6.6051-6.471-0.04538-4.7281 5.268-8.7932 9.7442-7.2697zm10.855 27.232c-1.43 2.41-0.78307 6.8758-0.23307 10.066-4.45-0.08-8.3724-0.12773-13.827 0.02775-3.9919 0.17097-9.3619-0.01-13.534 0.93101-1.5833-3.8996-1.5936-9.4869 0.66638-13.197 3.32-5.44 9.6858-8.5044 15.756-8.4944 6.9974-0.68379 16.582 3.5801 24.84-4.8885 2.2575 2.9634-4.9279 8.5852-5.9439 9.2956-1.98 1.62-5.9878 4.2349-7.7247 6.2596z"/>
  <path d="m30.4 35c1.12 1 3.11-0.3 2.18-1.69a39 39 0 0 0-4.38-5.31c1.23-1.17 2.52-2.29 3.63-3.56s-0.29-3.11-1.69-2.19a36.76 36.76 0 0 0-4.28 3.41c-1.08-1-2.15-2-3.19-3a1.644 1.644 0 0 0-2.33 2.32c1 1 2 2.06 3.06 3.06-1.36 1.38-2.68 2.79-3.94 4.14a1.65 1.65 0 0 0 2.33 2.32c1.4-1.31 2.73-2.72 4.06-4.11l0.3 0.3c1.44 1.36 2.73 2.95 4.25 4.31z"/>
  <path d="m78.63 21.83a49.19 49.19 0 0 0-7.21 8.5l-0.12-0.12c-0.93-0.9-1.81-1.88-2.79-2.72a1.65 1.65 0 0 0-2.32 2.33 28.46 28.46 0 0 0 2.81 2.66 18.14 18.14 0 0 0 2.21 2 1.27 1.27 0 0 0 1.92-0.69 1.89 1.89 0 0 0 0.2-0.27 45 45 0 0 1 3.54-5 35.37 35.37 0 0 0 3.92-5.05 1.4 1.4 0 0 0-2.16-1.64z"/>
 </g>
 <ellipse cx="33.831" cy="20.81" rx="1.6394" ry="1.8604"/>
</svg>
