<svg xmlns="http://www.w3.org/2000/svg" xmlns:xlink="http://www.w3.org/1999/xlink" version="1.1" x="0px" y="0px" viewBox="0 0 65 65" enable-background="new 0 0 65 65" xml:space="preserve"><g><rect x="22.8" y="6.4" transform="matrix(0.3826 0.9239 -0.9239 0.3826 21.8248 -18.3469)" width="3.7" height="1.5"/><rect x="11.4" y="17.7" transform="matrix(0.9239 0.3827 -0.3827 0.9239 8.0479 -3.6546)" width="3.7" height="1.5"/><rect x="11.2" y="33.7" transform="matrix(0.9239 -0.3827 0.3827 0.9239 -12.1845 7.6285)" width="3.7" height="1.5"/><rect x="50" y="34" transform="matrix(-0.9239 -0.3826 0.3826 -0.9239 86.3401 86.6761)" width="3.7" height="1.5"/><rect x="50.1" y="18" transform="matrix(-0.9239 0.3827 -0.3827 -0.9239 107.0508 16.1429)" width="3.7" height="1.5"/><rect x="39.9" y="5.5" transform="matrix(0.9238 0.3828 -0.3828 0.9238 5.8876 -15.0146)" width="1.5" height="3.7"/><rect x="31.9" y="0.1" width="1.5" height="7.3"/><rect x="12.8" y="9.6" transform="matrix(0.7071 0.7071 -0.7071 0.7071 12.1504 -8.6439)" width="7.3" height="1.5"/><rect x="6" y="25.7" width="7.3" height="1.5"/><rect x="15.5" y="38.9" transform="matrix(-0.7071 -0.7071 0.7071 -0.7071 -2.3274 84.1703)" width="1.5" height="7.3"/><rect x="44.8" y="42.1" transform="matrix(-0.7071 -0.7071 0.7071 -0.7071 52.5032 107.3665)" width="7.3" height="1.5"/><rect x="51.6" y="26" width="7.3" height="1.5"/><rect x="48" y="6.9" transform="matrix(0.7071 0.7071 -0.7071 0.7071 21.7575 -31.3559)" width="1.5" height="7.3"/><path d="M49,26.4c0-9.2-7.5-16.6-16.6-16.6s-16.6,7.5-16.6,16.6c0,8.1,5.9,14.9,13.6,16.3v3.1c-1.4,0.1-2.5,1.2-2.5,2.6v10.9   c0,3.1,2.5,5.5,5.5,5.5c3.1,0,5.5-2.5,5.5-5.5V48.4c0-1.4-1.1-2.6-2.5-2.6v-3.1C43.1,41.3,49,34.5,49,26.4z M17.3,26.4   c0-8.3,6.8-15.1,15.1-15.1S47.5,18,47.5,26.4c0,8.3-6.8,15.1-15.1,15.1S17.3,34.7,17.3,26.4z M35.3,47.3c0.6,0,1.1,0.5,1.1,1.1   v10.9c0,2.2-1.8,4-4,4c-2.2,0-4-1.8-4-4V48.4c0-0.6,0.5-1.1,1.1-1.1h1.4v-4.4c0.5,0,1,0.1,1.5,0.1c0.5,0,1,0,1.5-0.1v4.4H35.3z"/><rect x="31.6" y="52.3" width="1.5" height="1.4"/><rect x="31.6" y="55.5" width="1.5" height="1.5"/><rect x="31.6" y="58.7" width="1.5" height="1.5"/><path d="M35,28.9l1.7-0.8l1.7,1l1.9-1l1.5,0.5l2.2,0l2-2.2l-2.1-2.1l-11.4,0c-0.9-2.7-3.4-4.7-6.5-4.7c-3.7,0-6.8,3-6.8,6.8   c0,3.7,3,6.8,6.8,6.8c3.1,0,5.7-2.1,6.5-4.9L35,28.9z M43.2,25.9l0.7,0.7l-0.6,0.7h-1.1l-2-0.7l-1.8,0.9l-1.7-1l-1.9,0.9l-2-0.5   c0-0.1,0-0.3,0-0.4c0-0.2,0-0.4,0-0.6L43.2,25.9z M26,31.8c-2.9,0-5.3-2.4-5.3-5.3c0-2.9,2.4-5.3,5.3-5.3s5.3,2.4,5.3,5.3   C31.3,29.4,28.9,31.8,26,31.8z"/><path d="M23.8,24.1c-1.3,0-2.3,1-2.3,2.3c0,1.3,1,2.3,2.3,2.3c1.3,0,2.3-1,2.3-2.3C26.2,25.2,25.1,24.1,23.8,24.1z M23.8,27.3   c-0.5,0-0.8-0.4-0.8-0.8c0-0.5,0.4-0.8,0.8-0.8c0.5,0,0.8,0.4,0.8,0.8C24.7,26.9,24.3,27.3,23.8,27.3z"/></g></svg>