<?xml version="1.0" encoding="UTF-8"?>
<svg version="1.1" viewBox="0 0 44 44.025" xmlns="http://www.w3.org/2000/svg">
 <path d="m35.429 8.4537c-0.15-0.37-0.32-0.74-0.5-1.09-1.8679-3.2338-4.9018-5.6308-8.48-6.7-3.5267-1.1264-7.356-0.80996-10.65 0.88-2.8762 1.3299-5.2894 3.4889-6.93 6.2-1.4152 2.8959-1.7383 6.2051-0.91 9.32 0.57 2.7 2.8 5 4.63 6.89 0.92467 1.0109 1.9278 1.9472 3 2.8 0.57263 0.49522 1.2602 0.83903 2 1-0.46227 0.18005-0.8889 0.44076-1.26 0.77-1.5667 1.5 0.68333 3.85 2.25 2.35h0.1l0.67-0.25c0.6-0.19 1.21-0.36 1.82-0.53 1.34-0.36 2.68-0.69 4-1.08 3.2415-1.0245 6.1127-2.9745 8.26-5.61 2.5832-3.4264 3.5967-7.7855 2.79-12-0.12616-1.015-0.39201-2.0078-0.79-2.95zm-1.2175 7.7485c-0.11205 1.8806-1.3453 4.3628-2.4911 5.8582-1.9719 2.4359-5.0701 3.8375-8.2514 3.9933h-0.15c0-0.18 0.07-0.35 0.11-0.53 0.36-1.52 0.14049-2.8064 0.61049-4.3164 0.49706-1.6879 1.3802-3.8426 2.213-5.3927 0.77327-1.2561 1.6397-2.1937 2.6613-3.2577 0.6842-0.78921 0.51416-1.4487-0.28473-1.4432-2.07 0.12-3.23 1.77-4.18 3.44-0.97483 1.7671-1.7272 3.6481-2.24 5.6-0.13 0.46-0.25 0.92-0.37 1.39-0.50305-1.1761-1.389-2.1239-2.0512-3.2183-0.65737-1.1027-1.3582-2.2163-2.1526-3.2248-0.232-0.3624-0.46261-0.69096-0.76893-0.99316-0.14311-0.11813-0.24876-0.18293-0.4284-0.22947l-0.3784-0.0068c-0.49022 0.08998-0.63413 0.29027-0.70049 0.73253-0.0049 0.02308-0.0049 0.04692 0 0.07-0.01842 0.26129 0.04072 0.5222 0.17 0.75 0.15 0.29 0.36 0.56 0.53 0.83 0.62 1 1.21 2 1.78 3.07 0.67275 1.1901 1.2447 2.4345 1.71 3.72 0.21531 0.57858 0.38254 1.1739 0.5 1.78 0.09175 0.63318 0.28418 1.2476 0.57 1.82 0.0033 0.02991 0.0033 0.06009 0 0.09-0.43 0.12-0.86 0.23-1.28 0.36l-0.3 0.08c0.01005-1.1401-0.5848-1.0518-1.2913-1.7204-0.8-0.71-1.6287-1.4255-2.621-2.2629-0.24616-0.22639-4.5394-4.4229-5.0112-6.9987-0.12847-0.70658-0.31154-2.1339-0.32951-2.8518-0.092789-1.2441 0.46758-2.6569 0.8835-3.8331 0.99673-2.2082 2.7391-4.6702 4.8746-5.8146 2.5172-1.6656 6.477-2.2974 9.4261-1.6548 3.0542 0.66929 6.2601 3.6577 7.9276 6.3025 1.1255 2.243 1.7643 5.3936 1.3138 7.8623z"/>
 <path d="m28.453 36.604a0.59 0.59 0 0 0-0.15-0.28 1 1 0 0 0-0.19-0.16l-0.35-0.2a2.41 2.41 0 0 0-0.78-0.23h-0.46c-0.12 0-0.25 0.05-0.37 0.07-1.34 0.23-2.69 0.47-4 0.72s-2.7 0.53-4.05 0.82c-0.73 0.16-1.75 0.22-2.25 0.78h0.07l-0.09 0.07-0.05 0.06a0.91 0.91 0 0 0-0.12 1.13l0.13 0.16c0.58 0.67 1.88 0.31 2.66 0.22 1.37-0.16 2.73-0.36 4.09-0.56l1.1-0.33c-0.9 0.61-1 1.85-2 2.4a0.72 0.72 0 0 1-1-0.12c-0.47-0.51-0.55-1-1.29-1.22a1 1 0 0 0-1.21 0.78 3 3 0 0 0 0.92 2.4 3.14 3.14 0 0 0 2.92 0.83 4 4 0 0 0 2.36-1.48c0.56-0.69 1.35-1.75 1.21-2.68a1.43 1.43 0 0 0-0.77-1.08l1.48-0.23a2.47 2.47 0 0 0 1.74-0.68v-0.06a0.9 0.9 0 0 0 0.23-0.21 1.23 1.23 0 0 0 0.14-0.25 0.77 0.77 0 0 0 0.07-0.17 1 1 0 0 0 0.01-0.5z"/>
 <path d="m22.047 38.054c-0.13 0.09-0.12 0.13 0 0z"/>
 <path d="m22.065 35.684h-0.13z"/>
 <path d="m28.377 32.284a0.67 0.67 0 0 0-0.15-0.29l-0.19-0.16a3.12 3.12 0 0 0-0.35-0.2 2.41 2.41 0 0 0-0.78-0.23h-0.46a2.41 2.41 0 0 0-0.37 0.07c-1.35 0.23-2.69 0.46-4 0.72s-2.7 0.52-4.05 0.82c-0.73 0.16-1.75 0.22-2.25 0.78a0.18 0.18 0 0 1 0.07 0l-0.09 0.07v0.06a0.91 0.91 0 0 0-0.12 1.13 0.67 0.67 0 0 0 0.13 0.15c0.58 0.68 1.88 0.32 2.66 0.23 1.37-0.16 2.73-0.36 4.08-0.56s2.52-0.39 3.78-0.58a2.41 2.41 0 0 0 1.73-0.69l0.06-0.05a0.77 0.77 0 0 0 0.22-0.22 1.23 1.23 0 0 0 0.14-0.25 0.44 0.44 0 0 0 0.06-0.17 1 1 0 0 0-0.12-0.63z"/>
 <path d="m22.052 33.744c-0.14 0.09-0.12 0.12-0.05 0z"/>
 <path d="m22.065 31.374h-0.13z"/>
 <path d="m22 13.784"/>
</svg>
