<svg xmlns="http://www.w3.org/2000/svg" xmlns:xlink="http://www.w3.org/1999/xlink" version="1.1" x="0px" y="0px" viewBox="0 0 520 520" style="enable-background:new 0 0 520 520;" xml:space="preserve"><g><g><path d="M260,94.954c-58.057,0-105.048,46.983-105.048,105.048c0,28.059,10.927,54.439,30.768,74.28    c1.953,1.952,5.118,1.952,7.071,0c1.953-1.952,1.953-5.118,0-7.071c-17.952-17.952-27.839-41.82-27.839-67.208    c0-52.529,42.511-95.048,95.048-95.048c52.529,0,95.048,42.509,95.048,95.048c0,25.388-9.887,49.256-27.839,67.208    c-3.166,3.166-0.871,8.536,3.535,8.536c1.279,0,2.56-0.488,3.535-1.465c19.842-19.841,30.769-46.221,30.769-74.28    C365.048,141.946,318.065,94.954,260,94.954z"/><path d="M426,194.665c0-0.053-0.014-0.102-0.016-0.154C426.52,102.096,351.493,27.501,260,27.501l-0.842,0.002    C170.206,27.945,94.009,99.836,94.009,194.665c0,51.186,25.317,102.654,70.536,134.536c21.02,14.821,34.012,38.499,35.335,63.99    c-8.551,2.27-14.88,10.055-14.88,19.311c0,5.975,2.647,11.332,6.815,15c-4.168,3.668-6.815,9.024-6.815,15    c0,11.027,8.972,20,20,20h10.363c2.435,16.938,17.036,30,34.637,30h20c17.601,0,32.203-13.062,34.637-30H315    c11.028,0,20-8.973,20-20c0-5.976-2.648-11.332-6.815-15c4.168-3.668,6.815-9.025,6.815-15c0-9.257-6.33-17.042-14.883-19.312    c1.298-25.594,14.092-49.133,34.793-63.605C401.092,297.299,426,245.101,426,194.665z M259.207,37.503L260,37.501    c84.736,0,153.907,67.911,155.951,152.164h-18.877C394.431,116.342,333.957,57.501,260,57.501s-134.431,58.841-137.074,132.164    h-18.869C106.09,106.072,175.445,37.919,259.207,37.503z M270,482.502h-20c-12.073,0-22.175-8.604-24.498-20h68.996    C292.175,473.898,282.073,482.502,270,482.502z M325,442.502c0,5.514-4.486,10-10,10c-17.004,0-96.535,0-110,0    c-5.514,0-10-4.486-10-10c0-5.515,4.486-10,10-10h110C320.514,432.502,325,436.987,325,442.502z M325,412.502    c0,5.514-4.486,10-10,10H205c-5.514,0-10-4.486-10-10c0-5.515,4.486-10,10-10h110C320.514,402.502,325,406.987,325,412.502z     M240,257.502h-15c-5.514,0-10-4.486-10-10.001c0-5.514,4.486-10,10-10h5c5.514,0,10,4.486,10,10V257.502z M270,282.502h-20v-15    h20V282.502z M270,292.502v100h-20v-100H270z M349.18,321.39c-23.186,16.21-37.543,42.518-39.048,71.112H280v-100h5    c2.762,0,5-2.239,5-5c0-2.762-2.238-5-5-5h-5v-15h15c11.028,0,20-8.973,20-20.001c0-11.028-8.972-20-20-20h-5    c-11.028,0-20,8.972-20,20v10.001h-20v-10.001c0-11.028-8.972-20-20-20h-5c-11.028,0-20,8.972-20,20    c0,11.028,8.972,20.001,20,20.001h15v15h-5c-2.761,0-5,2.238-5,5c0,2.761,2.239,5,5,5h5v100h-30.134    c-1.53-28.476-16.073-54.913-39.559-71.474c-39.948-28.166-64.247-73.039-66.173-121.363h23.702c2.761,0,5-2.239,5-5    c0-70.119,57.045-127.164,127.164-127.164c70.118,0,127.164,57.045,127.164,127.164c0,2.761,2.238,5,5,5h23.698    C413.932,248.173,389.324,293.323,349.18,321.39z M280,257.502v-10.001c0-5.514,4.486-10,10-10h5c5.514,0,10,4.486,10,10    c0,5.514-4.486,10.001-10,10.001H280z"/><circle cx="387.502" cy="40.002" r="7.5"/><circle cx="462.498" cy="180.002" r="7.5"/><circle cx="427.502" cy="325.002" r="7.5"/><circle cx="377.498" cy="445.002" r="7.5"/><circle cx="157.498" cy="434.998" r="7.5"/><circle cx="97.502" cy="54.998" r="7.5"/><circle cx="67.502" cy="269.998" r="7.5"/><path d="M80,332.502c-19.299,0-35,15.701-35,35c0,19.299,15.701,35,35,35s35-15.701,35-35C115,348.203,99.299,332.502,80,332.502z     M80,392.502c-13.785,0-25-11.215-25-25c0-13.785,11.215-25,25-25s25,11.215,25,25C105,381.287,93.785,392.502,80,392.502z"/><path d="M425,382.502c-13.785,0-25,11.215-25,25c0,13.785,11.215,25,25,25c13.785,0,25-11.215,25-25    C450,393.717,438.785,382.502,425,382.502z M425,422.502c-8.272,0-15-6.73-15-15c0-8.272,6.728-15,15-15c8.271,0,15,6.728,15,15    C440,415.772,433.271,422.502,425,422.502z"/><path d="M445,107.502c13.785,0,25-11.215,25-25c0-13.785-11.215-25-25-25c-13.785,0-25,11.215-25,25    C420,96.287,431.215,107.502,445,107.502z M445,67.502c8.271,0,15,6.729,15,15s-6.729,15-15,15c-8.272,0-15-6.729-15-15    S436.728,67.502,445,67.502z"/></g></g></svg>