<?xml version="1.0" encoding="UTF-8"?>
<svg data-name="Layer 1" version="1.1" viewBox="0 0 57.122 46.902" xmlns="http://www.w3.org/2000/svg">
 <path d="m8.4316 19.499-0.7 2.83c-0.25198 1.0171-1.776 0.63814-1.524-0.379l0.7-2.83c0.27119-0.98274 1.7426-0.61609 1.521 0.379zm46.673 14.082-5.1421 2.246c-0.08479 0.03007-0.17404 0.04562-0.264 0.046-0.33117-0.0014-0.62575-0.21072-0.736-0.523l-1.035-2.893-3.188 1.08-2.345 1.188c1.0622 1.8874-0.3559 4.2086-2.52 4.125 0.19495 1.5316-0.90081 2.9266-2.435 3.1-0.38576 0.04863-0.77744 0.01454-1.149-0.1-0.08343 0.44653-0.27386 0.86619-0.555 1.223-0.47417 0.60181-1.1766 0.98017-1.94 1.045 0.0033 2.3229-2.674 3.6258-4.5 2.19l-4.333-3.424-0.127 0.138c-0.48359 0.53403-1.1612 0.85175-1.881 0.882h-0.129c-1.4018 6.15e-4 -2.5727-1.068-2.7-2.464-1.7462 0.50368-3.492-0.79476-3.512-2.612h-0.143c-0.68942 0.0025-1.3541-0.25658-1.86-0.725-0.82454-0.75503-1.1124-1.9328-0.729-2.983l-1.806-0.37c-0.186-0.04092-0.35105-0.14741-0.465-0.3l-2.894-0.635-0.321 1.306c-0.084977 0.35196-0.33363 0.40108-0.69571 0.40113-0.062982 5.3e-5 -1.8171-0.37079-1.8783-0.38549l-5.2249-1.1216c-0.42016-0.10345-0.64581-0.34024-0.574-0.948l4.9263-18.333 1.2437 0.14171c1.2181-1.5069 2.8436-2.6319 4.683-3.241-4.1641-3.0454-1.9252-9.5494 3.2322-9.5559 5.1574-0.00654 7.2362 6.4919 3.0798 9.5479 1.1075 0.36418 2.1432 0.91809 3.061 1.637 1.2432-1.2186 2.7551-2.1283 4.414-2.656-4.5413-3.4052-2.3515-10.615 3.3523-10.607 5.7038 0.0076894 8.0064 7.3559 3.3237 10.616 1.658 0.52815 3.1696 1.4367 4.414 2.653 0.9193-0.72197 1.9575-1.278 3.068-1.643-4.1533-3.0552-1.9872-9.6377 3.1672-9.6319 5.1544 0.00572 7.3058 6.593 3.1458 9.6389 1.7885 0.59258 3.3757 1.6736 4.582 3.121l0.177-0.064c0.19615-0.0694 0.26722-0.0469 0.475 0.2175 2.6033 5.5559 4.6102 11.674 6.71 17.542 0 0-0.94185 0.79717-1.9729 1.131zm-13.189-22.468h0.127c5.273-0.08824 5.234-7.5416-1e-3 -7.8345-4.8122-0.26927-5.399 7.7463-0.126 7.8345zm-13.976-1.019h0.144c5.9332-0.10001 5.2872-8.7116-0.072-8.5378-5.4504 0.17678-6.0052 8.4378-0.072 8.5378zm-9.325 9.521 1.737-0.078c1.1843-0.0622 2.3655 0.17005 3.438 0.676l1-0.533c1.1363-0.60956 2.4109-0.91478 3.7-0.886l8.78 0.16c-2.568-10.448-16.824-10.171-18.655 0.661zm-4.646-8.5h0.127c5.1935-0.08817 5.9153-7.6534-0.46125-7.6534-4.6972 0-4.8593 7.5652 0.33425 7.6534zm-6.949 22.874 4-16.3-5.327-1.308-4 16.3zm5.754-16.69-0.36 1.467 3.131 0.831c0.10215 0.02825 0.19766 0.07652 0.281 0.142l1.194-0.053c0.2619-1.911 1.0205-3.7198 2.2-5.246-1.4689-1.1286-3.3525-2.1327-5.2049-2.1447-1.2886 0-3.8876 0.6976-6.1061 2.9997l4.29 1.055c0.41994 0.1044 0.67652 0.52859 0.574 0.949zm-3.678 15 2.592 0.568 2.721-11.945-2.366-0.628zm8.258 4.59 1.881-2.052c0.21484-0.23253 0.32694-0.54181 0.311-0.858-0.01326-0.31789-0.07525-0.6797-0.31088-0.8935-0.218-0.20046-0.58198-0.24837-0.87812-0.2465h-0.057c-0.31447 0.01058-0.61115 0.14845-0.822 0.382l-1.9958 1.8765c-0.61926 0.61926-0.75712 1.4477-0.29316 1.8733 0.56292 0.61064 1.5686 0.57035 2.1639-0.08584zm2.924 2.712 1.89-2.059c0.52558-0.57756 0.30079-1.5576 0.03601-1.7999-0.33942-0.38624-1.3737-0.32439-1.823 0.16791l-1.889 2.061c-1.086 1.1913 0.701 2.8203 1.787 1.629zm3.4 2.37 1.83-2c0.43293-0.46964 0.6998-1.3186 0.12831-1.8371-0.46927-0.42851-1.401-0.18962-1.8333 0.28112l-1.827 2c-0.50374 0.55203-0.29687 1.5772-0.08225 1.7716 0.2084 0.18408 1.2553 0.37004 1.7842-0.21962zm17.2-6.647c-3.3634-2.6897-7.0636-5.5013-10.53-8.274l-1.33-1.036c-0.38046-0.24671-0.83404-0.35543-1.285-0.308l-1.075 0.1-3.534 2.569c-0.913 0.659-3.0671 1.6918-4.979 0.273-0.82894-0.86726-1.045-1.9204-0.9779-3.2138 0.13518-1.0921 0.76242-2.0978 1.7249-2.6312l3-1.59c-0.48384-0.10039-0.97841-0.13936-1.472-0.116l-1.949 0.088h-8e-3l-2.528 0.113-2.755 12.084 1.405 0.288c0.093 0.018 0.178 0.059 0.268 0.083l1.46-1.593c1.6635-1.8139 4.6897-0.71374 4.8 1.745v0.051c0.013 0 0.025 0 0.038-5e-3 1.506-0.07077 2.7909 1.0784 2.888 2.583 2.6068-0.61085 4.435 2.5159 2.624 4.488l-0.64 0.7 3.9798 3.4655c1.0284 0.82137 2.7071-0.47278 2.0792-1.6295-0.0332-0.06299-0.05744-0.1303-0.072-0.2l-3.724-2.958c-0.778-0.65374 0.16031-1.8367 0.974-1.228l2.9002 2.6654c0.92043 0.72302 1.6581 0.96491 2.3408 0.27264 0.91979-1.1701-2.0906-3.4191-3.474-4.577-0.87915-0.66266 0.20007-1.95 1.006-1.2 1.3312 1.1422 2.5783 2.0779 3.95 3.514l0.387 0.308c0.25034 0.19843 0.57014 0.28748 0.887 0.247 0.32111-0.03497 0.61456-0.19792 0.814-0.452 0.41271-0.5251 0.3233-1.285-0.2-1.7l-6.557-5.18c-0.82501-0.63781 0.21068-1.8546 1.0002-1.3038 2.0953 1.2397 7.2356 7.0046 8.7836 5.1953 0.5618-0.82166-0.19397-1.6582-0.21978-1.6376zm2.6-2.9-2.145-6.806-1.59-5.043-11.28-0.213c-1.0245-0.03584-2.0397 0.20603-2.938 0.7-1.9325 1.0984-3.9279 2.0855-5.897 3.13-0.52069 0.30453-0.86584 0.83822-0.93 1.438-0.12357 0.69148 0.08155 1.4011 0.555 1.92 0.656 0.65 1.292 0.765 2.951-0.435l3.7-2.692c0.11302-0.08297 0.24642-0.13377 0.386-0.147l1.29-0.123c0.126-0.011 0.251-0.017 0.374-0.017 0.65284-0.0018 1.2929 0.18122 1.846 0.528 0.019 0.013 0.042 0.016 0.061 0.03l0.115 0.09c0.074 0.052 0.152 0.094 0.224 0.152l1.067 0.853 9.98 7.761zm3.909-1.434-4.024-11.271-2.045 0.6 1.473 4.675 2.15 6.819zm-4.547-12.753-0.059-0.166c-0.14447-0.4067 0.06696-0.85369 0.473-1l4.885-1.749c-2.2366-2.3372-4.9455-3.0795-6.1665-3.0795-1.0247 0-3.122 0.61806-5.1795 2.1995 1.0338 1.3347 1.7466 2.8896 2.083 4.544l1.344 0.024zm12.5 14-5.653-15.8-5.163 1.849 5.653 15.805zm-4.1-1.111c0.34186 0.97334 1.8021 0.48202 1.486-0.5l-1.1-3.28c-0.33551-0.98694-1.8159-0.48915-1.487 0.5z"/>
</svg>
