<svg xmlns="http://www.w3.org/2000/svg" xmlns:xlink="http://www.w3.org/1999/xlink" version="1.1" x="0px" y="0px" viewBox="0 0 66 66" style="enable-background:new 0 0 66 66;" xml:space="preserve"><style type="text/css">
	.st0{fill:#fff;}
</style><g><path class="st0" d="M10,39.1h46c0.4,0,0.8-0.3,0.8-0.8V10c0-0.4-0.3-0.8-0.8-0.8H10c-0.4,0-0.8,0.3-0.8,0.8v28.3   C9.3,38.8,9.6,39.1,10,39.1z M10.8,10.8h44.5v26.8H10.8V10.8z"/><path class="st0" d="M65.7,59.7l-4.9-16.2V6c0-0.4-0.3-0.8-0.8-0.8H6C5.5,5.3,5.2,5.6,5.2,6v37.5L0.3,59.7   c-0.1,0.5,0.2,1,0.7,1h64C65.5,60.7,65.9,60.2,65.7,59.7z M59.3,6.8v36.1H6.7V6.8H59.3z M2,59.2l4.5-14.8h53L64,59.2H2z"/><path class="st0" d="M41.3,54.6l-1.8-4.3c-0.1-0.3-0.4-0.5-0.7-0.5H27.2c-0.3,0-0.6,0.2-0.7,0.5l-1.8,4.3   c-0.2,0.5,0.2,1,0.7,1h15.3C41.2,55.6,41.5,55.1,41.3,54.6z M26.5,54.1l1.2-2.8h10.6l1.2,2.8H26.5z"/><path class="st0" d="M36.6,40.2h-7.1c-0.4,0-0.8,0.3-0.8,0.8s0.3,0.8,0.8,0.8h7.1c0.4,0,0.8-0.3,0.8-0.8   S37,40.2,36.6,40.2z"/><path class="st0" d="M52.3,13H28c-0.4,0-0.8,0.3-0.8,0.8v13.5c0,0.4,0.3,0.8,0.8,0.8h8.1c0.4,0,0.8-0.3,0.8-0.8   s-0.3-0.8-0.8-0.8h-7.4v-12h22.8v12H48c-0.4,0-0.8,0.3-0.8,0.8S47.6,28,48,28h4.3c0.4,0,0.8-0.3,0.8-0.8V13.8   C53.1,13.3,52.7,13,52.3,13z"/><path class="st0" d="M22.9,13h-9.2c-0.4,0-0.8,0.3-0.8,0.8v7c0,0.4,0.3,0.8,0.8,0.8h9.2c0.4,0,0.8-0.3,0.8-0.8v-7   C23.6,13.3,23.3,13,22.9,13z M22.1,20h-7.7v-5.5h7.7V20z"/><path class="st0" d="M22.9,26.1h-9.2c-0.4,0-0.8,0.3-0.8,0.8s0.3,0.8,0.8,0.8h9.2c0.4,0,0.8-0.3,0.8-0.8   S23.3,26.1,22.9,26.1z"/><path class="st0" d="M22.9,31.7h-9.2c-0.4,0-0.8,0.3-0.8,0.8s0.3,0.8,0.8,0.8h9.2c0.4,0,0.8-0.3,0.8-0.8   S23.3,31.7,22.9,31.7z"/><path class="st0" d="M45.3,27l2-1.3c0.5-0.3,0.4-1.1-0.1-1.3l-8.1-3c-0.5-0.2-1,0.2-1,0.7l-0.6,8.7   c0,0.6,0.6,1,1.2,0.7l2-1.3l3.1,4.4c0.2,0.3,0.7,0.4,1,0.2l3.4-2.2c0.2-0.1,0.3-0.3,0.3-0.5c0-0.2,0-0.4-0.1-0.6L45.3,27z M44.5,33   l-3.1-4.4c-0.2-0.3-0.7-0.4-1-0.2L39,29.3l0.4-6.2l5.8,2.2l-1.4,0.9c-0.4,0.2-0.4,0.7-0.2,1.1l3.1,4.3L44.5,33z"/></g></svg>